<svg xmlns="http://www.w3.org/2000/svg" width="11" height="11" viewBox="0 0 11 11">
  <g id="XMLID_3_" transform="translate(-154 -261.7)">
    <path id="XMLID_2_" d="M163.312,272.2h-7.624a1.2,1.2,0,0,1-1.188-1.188v-7.624a1.2,1.2,0,0,1,1.188-1.188h7.624a1.2,1.2,0,0,1,1.188,1.188v7.624A1.2,1.2,0,0,1,163.312,272.2Z" fill="none" stroke="#eb486e" stroke-miterlimit="10" stroke-width="1"/>
    <path id="XMLID_18_" d="M160.436,267.249l2.264,2.265-.886.886-2.264-2.265-2.264,2.265-.886-.886,2.264-2.265-2.264-2.265.886-.985,2.264,2.363L161.814,264l.886.985Z" fill="#eb486e"/>
  </g>
</svg>
